<?xml version="1.0" encoding="utf-8"?>
<!-- Uploaded to: SVG Repo, www.svgrepo.com, Generator: SVG Repo Mixer Tools -->
<svg width="800px" height="800px" viewBox="0 -0.25 79.5 79.5" xmlns="http://www.w3.org/2000/svg">
  <g id="Coding" transform="translate(-80.251 -390.392)">
    <g id="Group_30" data-name="Group 30">
      <g id="Group_29" data-name="Group 29">
        <g id="Group_28" data-name="Group 28">
          <g id="Group_27" data-name="Group 27">
            <path id="Path_64" data-name="Path 64" d="M159.751,398.392V448.3a8.011,8.011,0,0,1-8,8H135.08l1.09,7.09h1.46a3,3,0,0,1,0,6H102.37a3,3,0,1,1,0-6h1.46l1.09-7.09H88.251a8.01,8.01,0,0,1-8-8v-49.91a8.01,8.01,0,0,1,8-8h63.5A8.011,8.011,0,0,1,159.751,398.392Zm-6,49.91v-8.111h-67.5V448.3a2.025,2.025,0,0,0,2,2h63.5A2.026,2.026,0,0,0,153.751,448.3Zm0-14.111v-35.8a2.026,2.026,0,0,0-2-2h-63.5a2.024,2.024,0,0,0-2,2v35.8H98.81l-4.17-1.249a3,3,0,0,1-2.139-2.881v-6.8a3.01,3.01,0,0,1,2.139-2.88l5.51-1.651c.061-.17.13-.329.21-.5l-2.73-5.069a2.992,2.992,0,0,1,.52-3.54l4.811-4.811a2.992,2.992,0,0,1,3.54-.52l5.069,2.73c.17-.079.33-.139.5-.21l1.65-5.509a3,3,0,0,1,2.88-2.14h6.8a3,3,0,0,1,2.88,2.14l1.65,5.509c.17.071.33.131.5.21l5.071-2.73a3,3,0,0,1,3.539.52l4.81,4.821a2.987,2.987,0,0,1,.52,3.54l-2.72,5.07c.07.16.14.329.2.489l5.51,1.651a3.012,3.012,0,0,1,2.141,2.88v6.8a3.005,3.005,0,0,1-2.141,2.881l-4.169,1.249Zm-12.25-6.36v-2.339l-4.821-1.451a2.948,2.948,0,0,1-2-1.97,15.4,15.4,0,0,0-1.05-2.53,2.976,2.976,0,0,1,.01-2.81l2.39-4.44-1.66-1.659-4.44,2.389a2.971,2.971,0,0,1-2.81.01,16.278,16.278,0,0,0-2.53-1.049,2.952,2.952,0,0,1-1.97-2l-1.45-4.82h-2.34l-1.45,4.82a2.966,2.966,0,0,1-1.98,2,15.683,15.683,0,0,0-2.52,1.059,3.019,3.019,0,0,1-2.82-.02l-4.44-2.389-1.65,1.659,2.39,4.431a2.994,2.994,0,0,1,.01,2.819,15.487,15.487,0,0,0-1.05,2.53,2.983,2.983,0,0,1-2,1.97L98.5,425.492v2.339l4.819,1.45a3,3,0,0,1,2,1.981,15.958,15.958,0,0,0,1.05,2.509,2.387,2.387,0,0,1,.16.42h5.62a10.89,10.89,0,1,1,15.7,0h5.611c.049-.139.1-.269.159-.41a15.674,15.674,0,0,0,1.06-2.519,2.964,2.964,0,0,1,2-1.981Zm-11.4,35.561L129,456.3H110.99l-1.09,7.09Zm-5.21-36.73a4.89,4.89,0,1,0-4.889,4.89A4.9,4.9,0,0,0,124.89,426.662Z" fill="#104386"/>
            <path id="Path_65" data-name="Path 65" d="M153.751,398.392v35.8h-12.56l4.169-1.249a3.005,3.005,0,0,0,2.141-2.881v-6.8a3.012,3.012,0,0,0-2.141-2.88l-5.51-1.651c-.06-.16-.13-.329-.2-.489l2.72-5.07a2.987,2.987,0,0,0-.52-3.54l-4.81-4.821a3,3,0,0,0-3.539-.52l-5.071,2.73c-.17-.079-.33-.139-.5-.21l-1.65-5.509a3,3,0,0,0-2.88-2.14v-2.77h28.351A2.026,2.026,0,0,1,153.751,398.392Z" fill="#f60"/>
            <path id="Path_66" data-name="Path 66" d="M141.5,425.492v2.339l-4.821,1.45a2.964,2.964,0,0,0-2,1.981,15.674,15.674,0,0,1-1.06,2.519c-.06.141-.11.271-.159.41H127.85a10.89,10.89,0,1,0-15.7,0h-5.62a2.387,2.387,0,0,0-.16-.42,15.958,15.958,0,0,1-1.05-2.509,3,3,0,0,0-2-1.981l-4.819-1.45v-2.339l4.819-1.451a2.983,2.983,0,0,0,2-1.97,15.487,15.487,0,0,1,1.05-2.53,2.994,2.994,0,0,0-.01-2.819l-2.39-4.431,1.65-1.659,4.44,2.389a3.019,3.019,0,0,0,2.82.02,15.683,15.683,0,0,1,2.52-1.059,2.966,2.966,0,0,0,1.98-2l1.45-4.82h2.34l1.45,4.82a2.952,2.952,0,0,0,1.97,2,16.278,16.278,0,0,1,2.53,1.049,2.971,2.971,0,0,0,2.81-.01l4.44-2.389,1.66,1.659-2.39,4.44a2.976,2.976,0,0,0-.01,2.81,15.4,15.4,0,0,1,1.05,2.53,2.948,2.948,0,0,0,2,1.97Z" fill="#ffffff"/>
            <path id="Path_67" data-name="Path 67" d="M129,456.3l1.1,7.09H109.9l1.09-7.09Z" fill="#e1d4c0"/>
            <path id="Path_68" data-name="Path 68" d="M120,421.771a4.891,4.891,0,1,1-4.891,4.891A4.9,4.9,0,0,1,120,421.771Z" fill="#f60"/>
            <path id="Path_69" data-name="Path 69" d="M122.12,443.122a3,3,0,1,1-4.24,0,2.95,2.95,0,0,1,2.121-.831A2.98,2.98,0,0,1,122.12,443.122Z" fill="#104386"/>
            <path id="Path_70" data-name="Path 70" d="M122.12,447.372a3,3,0,0,0,0-4.25,2.98,2.98,0,0,0-2.119-.831v-2.1h33.75V448.3a2.026,2.026,0,0,1-2,2H120v-2.06A3.048,3.048,0,0,0,122.12,447.372Z" fill="#69f"/>
            <path id="Path_71" data-name="Path 71" d="M120,450.3H88.251a2.025,2.025,0,0,1-2-2v-8.111H120v2.1a2.95,2.95,0,0,0-2.121.831,3,3,0,0,0,2.121,5.12Z" fill="#69f"/>
            <path id="Path_72" data-name="Path 72" d="M116.6,399.162a3,3,0,0,0-2.88,2.14l-1.65,5.509c-.17.071-.33.131-.5.21l-5.069-2.73a2.992,2.992,0,0,0-3.54.52l-4.811,4.811a2.992,2.992,0,0,0-.52,3.54l2.73,5.069c-.08.171-.149.33-.21.5l-5.51,1.651a3.01,3.01,0,0,0-2.139,2.88v6.8a3,3,0,0,0,2.139,2.881l4.17,1.249H86.251v-35.8a2.024,2.024,0,0,1,2-2H123.4v2.77Z" fill="#f60"/>
          </g>
        </g>
      </g>
    </g>
  </g>
</svg>