<?xml version="1.0" encoding="iso-8859-1"?>
<!-- Uploaded to: SVG Repo, www.svgrepo.com, Generator: SVG Repo Mixer Tools -->
<svg height="800px" width="800px" version="1.1" id="Layer_1" xmlns="http://www.w3.org/2000/svg" xmlns:xlink="http://www.w3.org/1999/xlink" 
	 viewBox="0 0 512 512" xml:space="preserve">
<path style="fill:#23CE9E;" d="M511.999,26.001l-24.322,41.986l-21.153,36.501l-93.301,65.216L144.194,329.8l-51.565,36.05
	l-31.931,22.316c-4.986,3.49-10.85,4.796-16.452,4.107c-6.469-0.783-12.594-4.202-16.619-9.971l-16.642-23.812
	c-7.526-10.755-4.902-25.557,5.852-33.071l31.931-22.328l91.663-64.065L317.716,115.1l104.946-73.359L511.999,26.001z"/>
<path style="fill:#19B783;" d="M487.676,67.987l-21.153,36.501l-93.301,65.216L144.194,329.8l-51.565,36.05l-31.931,22.316
	c-4.986,3.49-10.85,4.796-16.452,4.107l-1.211-1.733c-7.526-10.755-4.902-25.557,5.852-33.071l31.931-22.328l91.663-64.065
	L349.766,147.15l104.946-73.359L487.676,67.987z"/>
<polygon style="fill:#ABEFE6;" points="512,25.999 483.843,74.596 466.524,104.486 422.663,41.739 456.684,35.744 "/>
<path style="fill:#F23488;" d="M48.768,303.092l43.861,62.759l-31.931,22.316c-10.743,7.514-25.557,4.891-33.071-5.864
	l-16.642-23.812c-7.526-10.755-4.902-25.557,5.852-33.071L48.768,303.092z"/>
<path style="fill:#EF9C7D;" d="M379.378,201.918c-2.151-24.192-12.272-47.128-29.275-64.471
	c-15.478-15.786-38.769-29.44-73.036-29.44c-81.227,0-171.477,84.235-126.352,175.991S271.05,511.131,346.26,503.61
	c46.941-4.694,54.038-48.648,52.74-81.026L379.378,201.918z"/>
<path style="fill:#D1866C;" d="M266.538,351.687c0,0,21.059,48.134,46.63,48.134c11.577,0,19.454-6.783,24.608-14.206l19.286-45.426
	c3.414-8.042-0.833-17.343-9.196-19.875c-12.281-3.719-28.152-12.382-35.449-32.56c-12.786-35.346,35.346-35.346,35.346-68.43
	c0-33.096-78.216-60.169-120.337-37.608c-13.054,6.994-20.182,18.61-23.805,31.312c-5.392,18.907-1.836,39.252,8.894,55.727
	L266.538,351.687z"/>
<path style="fill:#EA9B22;" d="M282.064,13.634l-13.4,5.726c-8.94,3.806-17.802,7.76-26.661,11.722
	c-17.705,7.948-35.303,16.102-52.828,24.398c-17.503,8.339-34.963,16.76-52.316,25.386l-13.023,6.455l-12.978,6.542
	c-8.663,4.34-17.288,8.753-25.904,13.186l-25.512,13.126l28.509,3.536c6.081,0.754,12.159,1.549,18.247,2.251l18.258,2.163
	c3.393,0.413,6.787,0.795,10.185,1.17l-16.605,9.287c-13.292,7.52-26.558,15.09-39.749,22.799
	c-13.206,7.684-26.33,15.522-39.403,23.456l-9.781,5.995l-9.737,6.08c-6.505,4.031-12.951,8.17-19.365,12.37
	c7.088-2.923,14.144-5.906,21.144-8.995l10.516-4.603l10.471-4.688c13.93-6.309,27.81-12.716,41.608-19.275
	c13.812-6.533,27.55-13.208,41.262-19.933l20.516-10.185l20.444-10.319l23.812-12.019l-26.729-3.823
	c-6.068-0.868-12.149-1.629-18.222-2.448c-6.076-0.793-12.148-1.639-18.231-2.381l-8.34-1.047c0.191-0.102,0.382-0.202,0.573-0.303
	l12.839-6.811l12.794-6.899c17.068-9.179,34.03-18.563,50.95-28.028c16.898-9.508,33.721-19.16,50.44-29.016
	c8.352-4.94,16.702-9.888,24.973-14.985l12.416-7.627c4.108-2.602,8.245-5.149,12.323-7.808
	C291.031,9.881,286.562,11.786,282.064,13.634z"/>
<path style="fill:#F23488;" d="M512,25.999l-28.157,48.597c-14.066-8.167-24.263-22.257-27.159-38.852L512,25.999z"/>
</svg>